<?xml version="1.0" encoding="UTF-8" standalone="no"?>
<!DOCTYPE svg PUBLIC "-//W3C//DTD SVG 1.1//EN" "http://www.w3.org/Graphics/SVG/1.1/DTD/svg11.dtd">
<svg version="1.1" xmlns="http://www.w3.org/2000/svg" xmlns:xlink="http://www.w3.org/1999/xlink" preserveAspectRatio="xMidYMid meet" viewBox="0 0 640 640" width="640" height="640"><defs><path d="M319.5 266.09C289.94 266.09 265.99 290.05 265.99 319.6C265.99 349.16 289.94 373.11 319.5 373.11C349.05 373.11 373.01 349.16 373.01 319.6C373.01 290.05 349.05 266.09 319.5 266.09Z" id="a19Dw87IZL"></path><path d="M508.41 238.44C569.05 259.31 606.33 290.95 606.33 319.6C606.33 349.46 566.81 383.07 501.7 404.65C452.48 420.96 387.7 429.47 319.5 429.47C249.57 429.47 183.36 421.48 133.59 404.47C70.61 382.94 32.67 348.89 32.67 319.6C32.67 291.19 68.26 259.79 128.05 238.95C178.56 221.34 246.95 210.8 319.5 210.8C391.34 210.8 458.09 221.11 508.41 238.44Z" id="befS5F7SA"></path><path d="M343.1 115.67C391.47 73.57 437.51 57.09 462.33 71.4C488.19 86.31 497.57 137.33 483.73 204.52C473.27 255.31 448.28 315.67 414.21 374.76C379.28 435.33 339.28 488.7 299.67 523.31C249.56 567.12 201.11 582.97 175.74 568.34C151.13 554.14 141.71 507.62 153.52 445.43C163.5 392.87 188.54 328.36 224.79 265.52C260.68 203.28 302.95 150.61 343.1 115.67Z" id="b4FEA3OKXx"></path><path d="M154.25 197.35C141.94 134.42 150.65 86.3 175.44 71.95C201.28 56.99 250.17 74.34 301.46 119.88C340.24 154.31 380.06 206.11 414.23 265.13C449.26 325.65 475.52 386.96 485.73 438.55C498.66 503.85 488.2 553.74 462.85 568.41C438.26 582.65 393.25 567.57 345.26 526.28C304.72 491.39 261.34 437.47 224.99 374.69C188.99 312.51 164.47 249.58 154.25 197.35Z" id="g3PHHRaJ7k"></path></defs><g><g><g><use xlink:href="#a19Dw87IZL" opacity="1" fill="#f6881f" fill-opacity="1"></use><g><use xlink:href="#a19Dw87IZL" opacity="1" fill-opacity="0" stroke="#000000" stroke-width="1" stroke-opacity="0"></use></g></g><g><use xlink:href="#befS5F7SA" opacity="1" fill="#000000" fill-opacity="0"></use><g><use xlink:href="#befS5F7SA" opacity="1" fill-opacity="0" stroke="#f15e22" stroke-width="24" stroke-opacity="1"></use></g></g><g><use xlink:href="#b4FEA3OKXx" opacity="1" fill="#000000" fill-opacity="0"></use><g><use xlink:href="#b4FEA3OKXx" opacity="1" fill-opacity="0" stroke="#f6881f" stroke-width="24" stroke-opacity="1"></use></g></g><g><use xlink:href="#g3PHHRaJ7k" opacity="1" fill="#000000" fill-opacity="0"></use><g><use xlink:href="#g3PHHRaJ7k" opacity="1" fill-opacity="0" stroke="#fab216" stroke-width="24" stroke-opacity="1"></use></g></g></g></g></svg>